<svg fill="none" xmlns="http://www.w3.org/2000/svg" viewBox="0 0 695 626"><path fill="#fff" d="M0 0h695v626H0z"/><ellipse cx="347.95" cy="313.004" rx="246.853" ry="242.906" transform="rotate(.023 347.95 313.004)" fill="#000"/><ellipse rx="120.575" ry="116.097" transform="matrix(1 -.00337 .00364 1 356.996 328.503)" fill="#FCFCFC"/><ellipse rx="67.8368" ry="65.8522" transform="matrix(.99316 .11672 -.12773 .99181 357.255 328.675)" fill="#000"/><path d="M236.442 96.2606 247.5 91l8.5-3.5 5.5-1.9999L264 84.5l3-1 7.5-2.5 3.5-.9999 1.5-.5 2-.5 2-.5001.505-.1641V329.661l-47.644-.013.081-233.3874ZM479.5 519.081l-10 6-9 4.5-3 1.5-7.067 3.238-3.933 1.762-6 2.5-5 2-1.5.5h.184l-1.758.68-.426.117-1 .352-1 .351-1.5.5-2.233-216.911 51.804-.582 1.429 193.493ZM394.709 280.01l-14.511 42.447 36.862 28.342-45.83-2.108-14.511 42.447-13.814-43.75-45.831-2.109 37.293-24.931-13.814-43.75 36.862 28.342 37.294-24.93Z" fill="#fff"/></svg>