<svg fill="none" xmlns="http://www.w3.org/2000/svg" viewBox="0 0 672 565"><ellipse cx="335.95" cy="252.004" rx="246.853" ry="242.906" transform="rotate(.023 335.95 252.004)" fill="#3A497E"/><ellipse rx="120.575" ry="116.097" transform="matrix(1 -.00337 .00364 1 344.996 267.503)" fill="#877DFC"/><ellipse rx="67.8368" ry="65.8522" transform="matrix(.99316 .11672 -.12773 .99181 345.255 267.675)" fill="#fff"/><path d="M224.442 35.2606 235.5 30l8.5-3.5 5.5-1.9999L252 23.5l3-1 7.5-2.5 3.5-.9999 1.5-.5 2-.5 2-.5001.505-.1641V268.661l-47.644-.013.081-233.3874ZM467.5 458.081l-10 6-9 4.5-3 1.5-7.067 3.238-3.933 1.762-6 2.5-5 2-1.5.5h.184l-1.758.68-.426.117-1 .352-1 .351-1.5.5-2.233-216.911 51.804-.582 1.429 193.493Z" fill="#877DFC"/><path d="m428.709 39.0097-14.511 42.4471 36.862 28.3422-45.83-2.108-14.511 42.447-13.814-43.75-45.831-2.109 37.293-24.9306-13.814-43.7502 36.862 28.3422 37.294-24.9307Z" fill="#C6AFEB"/><mask id="a" style="mask-type:alpha" maskUnits="userSpaceOnUse" x="152" y="403" width="158" height="113"><ellipse cx="231" cy="459.5" rx="79" ry="56.5" fill="#EA9FEC"/></mask><g mask="url(#a)"><ellipse cx="370.981" cy="434.822" rx="86" ry="65.5" transform="rotate(-3.636 370.981 434.822)" fill="#AA34F2"/><ellipse cx="195" cy="337" rx="74" ry="85" fill="#D1ABF8"/><ellipse cx="277" cy="392" rx="68" ry="32" fill="#5416A3"/></g></svg>