<svg width="695" height="626" viewBox="0 0 695 626" fill="none" xmlns="http://www.w3.org/2000/svg">
<rect width="695" height="626" fill="white"/>
<ellipse cx="347.95" cy="313.004" rx="246.853" ry="242.906" transform="rotate(0.0227796 347.95 313.004)" fill="black"/>
<ellipse rx="120.575" ry="116.097" transform="matrix(0.999994 -0.00337362 0.00363589 0.999993 356.996 328.503)" fill="#FCFCFC"/>
<ellipse rx="67.8368" ry="65.8522" transform="matrix(0.993165 0.116721 -0.127726 0.99181 357.255 328.675)" fill="black"/>
<path d="M236.442 96.2606L247.5 91L256 87.5L261.5 85.5001L264 84.5L267 83.5L274.5 81L278 80.0001L279.5 79.5001L281.5 79.0001L283.5 78.5L284.005 78.3359L284.005 329.661L236.361 329.648L236.442 96.2606Z" fill="white"/>
<path d="M479.5 519.081L469.5 525.081L460.5 529.581L457.5 531.081L450.433 534.319L446.5 536.081L440.5 538.581L435.5 540.581L434 541.081L434.184 541.081L432.426 541.761L432 541.878L431 542.23L430 542.581L428.5 543.081L426.267 326.17L478.071 325.588L479.5 519.081Z" fill="white"/>
<path d="M394.709 280.01L380.198 322.457L417.06 350.799L371.23 348.691L356.719 391.138L342.905 347.388L297.074 345.279L334.367 320.348L320.553 276.598L357.415 304.94L394.709 280.01Z" fill="white"/>
</svg>
