<svg width="672" height="626" viewBox="0 0 672 626" fill="none" xmlns="http://www.w3.org/2000/svg">
<g clip-path="url(#clip0_1_9)">
<rect width="672" height="626" fill="white"/>
<ellipse cx="335.95" cy="313.004" rx="246.853" ry="242.906" transform="rotate(0.0227796 335.95 313.004)" fill="#3A497E"/>
<ellipse rx="120.575" ry="116.097" transform="matrix(0.999994 -0.00337362 0.00363589 0.999993 344.996 328.503)" fill="#877DFC"/>
<ellipse rx="67.8368" ry="65.8522" transform="matrix(0.993165 0.116721 -0.127726 0.99181 345.255 328.675)" fill="white"/>
<path d="M224.442 96.2606L235.5 91L244 87.5L249.5 85.5001L252 84.5L255 83.5L262.5 81L266 80.0001L267.5 79.5001L269.5 79.0001L271.5 78.5L272.005 78.3359L272.005 329.661L224.361 329.648L224.442 96.2606Z" fill="#877DFC"/>
<path d="M467.5 519.081L457.5 525.081L448.5 529.581L445.5 531.081L438.433 534.319L434.5 536.081L428.5 538.581L423.5 540.581L422 541.081L422.184 541.081L420.426 541.761L420 541.878L419 542.23L418 542.581L416.5 543.081L414.267 326.17L466.071 325.588L467.5 519.081Z" fill="#877DFC"/>
<path d="M382.709 280.01L368.198 322.457L405.06 350.799L359.23 348.691L344.719 391.138L330.905 347.388L285.074 345.279L322.367 320.348L308.553 276.598L345.415 304.94L382.709 280.01Z" fill="#3A497F"/>
</g>
<defs>
<clipPath id="clip0_1_9">
<rect width="672" height="626" fill="white"/>
</clipPath>
</defs>
</svg>

